<svg width="38" height="37" viewBox="0 0 38 37" fill="none" xmlns="http://www.w3.org/2000/svg">
<path d="M0 18.2245C0 8.15938 8.15938 0 18.2245 0H19.7755C29.8406 0 38 8.15938 38 18.2245C38 28.2896 29.8406 36.449 19.7755 36.449H18.2245C8.15938 36.449 0 28.2896 0 18.2245Z" fill="#524050"/>
<path d="M20.065 28V18.8919H22.83L23.241 15.3258H20.065V13.0543C20.065 12.0253 20.323 11.3207 21.652 11.3207H23.336V8.14132C22.5166 8.04374 21.693 7.99662 20.869 8.00019C18.425 8.00019 16.747 9.65823 16.747 12.702V15.3191H14V18.8852H16.753V28H20.065Z" fill="#699BF7"/>
</svg>
