<svg width="38" height="38" viewBox="0 0 38 38" fill="none" xmlns="http://www.w3.org/2000/svg">
<path d="M0 19C0 8.50659 8.50659 0 19 0C29.4934 0 38 8.50659 38 19C38 29.4934 29.4934 38 19 38C8.50659 38 0 29.4934 0 19Z" fill="#E2DDB0"/>
<path d="M20.065 31V21.8919H22.83L23.241 18.3258H20.065V16.0543C20.065 15.0253 20.323 14.3207 21.652 14.3207H23.336V11.1413C22.5166 11.0437 21.693 10.9966 20.869 11.0002C18.425 11.0002 16.747 12.6582 16.747 15.702V18.3191H14V21.8852H16.753V31H20.065Z" fill="#699BF7"/>
</svg>
