<svg width="38" height="38" viewBox="0 0 38 38" fill="none" xmlns="http://www.w3.org/2000/svg">
<path d="M0 19C0 8.50659 8.50659 0 19 0C29.4934 0 38 8.50659 38 19C38 29.4934 29.4934 38 19 38C8.50659 38 0 29.4934 0 19Z" fill="#E2DDB0"/>
<path d="M31.5556 10.3676C30.5986 10.7758 29.5836 11.0438 28.5442 11.1626C29.6268 10.5377 30.4581 9.54822 30.8495 8.36925C29.8203 8.95737 28.6943 9.37174 27.5202 9.59445C26.5637 8.61323 25.2012 8 23.6931 8C20.7976 8 18.4499 10.2607 18.4499 13.0489C18.4499 13.4447 18.4964 13.83 18.5857 14.1996C14.2283 13.989 10.365 11.9789 7.77901 8.92422C7.32779 9.66992 7.06924 10.5373 7.06924 11.4625C7.06924 13.2142 7.99493 14.7596 9.40168 15.665C8.56908 15.6399 7.7548 15.4234 7.02681 15.0334C7.02651 15.0546 7.02651 15.0757 7.02651 15.097C7.02651 17.5433 8.83377 19.584 11.2322 20.0478C10.4601 20.25 9.65028 20.2796 8.86452 20.1343C9.53166 22.1402 11.468 23.5999 13.7622 23.6408C11.9678 24.9949 9.70705 25.8021 7.25072 25.8021C6.82746 25.8021 6.41019 25.7782 6 25.7316C8.32026 27.1641 11.0762 28 14.037 28C23.681 28 28.9545 20.3064 28.9545 13.6344C28.9545 13.4154 28.9495 13.1977 28.9393 12.9812C29.9658 12.2666 30.8517 11.3816 31.5556 10.3676Z" fill="#55ACEE"/>
</svg>
