<svg width="38" height="37" viewBox="0 0 38 37" fill="none" xmlns="http://www.w3.org/2000/svg">
<path d="M0 18.2245C0 8.15938 8.15938 0 18.2245 0H19.7755C29.8406 0 38 8.15938 38 18.2245C38 28.2896 29.8406 36.449 19.7755 36.449H18.2245C8.15938 36.449 0 28.2896 0 18.2245Z" fill="#524050"/>
<path d="M31.5556 9.36755C30.5986 9.77581 29.5836 10.0438 28.5442 10.1626C29.6268 9.53771 30.4581 8.54822 30.8495 7.36925C29.8203 7.95737 28.6943 8.37174 27.5202 8.59445C26.5637 7.61323 25.2012 7 23.6931 7C20.7976 7 18.4499 9.26065 18.4499 12.0489C18.4499 12.4447 18.4964 12.83 18.5857 13.1996C14.2283 12.989 10.365 10.9789 7.77901 7.92422C7.32779 8.66992 7.06924 9.53732 7.06924 10.4625C7.06924 12.2142 7.99493 13.7596 9.40168 14.665C8.56908 14.6399 7.7548 14.4234 7.02681 14.0334C7.02651 14.0546 7.02651 14.0757 7.02651 14.097C7.02651 16.5433 8.83377 18.584 11.2322 19.0478C10.4601 19.25 9.65028 19.2796 8.86452 19.1343C9.53166 21.1402 11.468 22.5999 13.7622 22.6408C11.9678 23.9949 9.70705 24.8021 7.25072 24.8021C6.82746 24.8021 6.41019 24.7782 6 24.7316C8.32026 26.1641 11.0762 27 14.037 27C23.681 27 28.9545 19.3064 28.9545 12.6344C28.9545 12.4154 28.9495 12.1977 28.9393 11.9812C29.9658 11.2666 30.8517 10.3816 31.5556 9.36755Z" fill="#55ACEE"/>
</svg>
