<svg width="38" height="38" viewBox="0 0 38 38" fill="none" xmlns="http://www.w3.org/2000/svg">
<path d="M0 19C0 8.50659 8.50659 0 19 0C29.4934 0 38 8.50659 38 19C38 29.4934 29.4934 38 19 38C8.50659 38 0 29.4934 0 19Z" fill="#E2DDB0"/>
<path d="M13.5146 27.4375L13.8907 27.625C15.4582 28.5625 17.2135 29 18.969 29C24.4861 29 29 24.5 29 19C29 16.375 27.9342 13.8125 26.0534 11.9375C24.1726 10.0625 21.6647 9 18.969 9C13.4519 9 8.93791 13.5 9.00065 19.0625C9.00065 20.9375 9.56489 22.7501 10.5053 24.3125L10.756 24.6875L9.753 28.3751L13.5146 27.4375Z" fill="#00E676"/>
<path d="M26.1117 11.9189C24.2588 10.0271 21.6975 9 19.0817 9C13.5232 9 9.05453 13.4865 9.10898 18.9459C9.10898 20.6757 9.59944 22.3514 10.4169 23.8649L9 29L14.2861 27.6486C15.7575 28.4595 17.3923 28.8379 19.0273 28.8379C24.5313 28.8379 29 24.3513 29 18.892C29 16.2433 27.9645 13.7568 26.1117 11.9189ZM19.0817 27.1622C17.6103 27.1622 16.139 26.7839 14.8855 26.0272L14.5586 25.865L11.3979 26.6757L12.2153 23.5947L11.9973 23.2703C9.59944 19.4326 10.7439 14.3513 14.6676 11.9729C18.5913 9.59459 23.6594 10.7297 26.0572 14.6216C28.455 18.5135 27.3106 23.5406 23.387 25.919C22.1335 26.7298 20.6076 27.1622 19.0817 27.1622ZM23.8773 21.1623L23.2779 20.892C23.2779 20.892 22.406 20.5136 21.861 20.2433C21.8065 20.2433 21.7521 20.1892 21.6975 20.1892C21.534 20.1892 21.425 20.2433 21.3161 20.2974C21.3161 20.2974 21.2616 20.3514 20.4986 21.2163C20.4441 21.3244 20.3351 21.3785 20.2262 21.3785H20.1716C20.1172 21.3785 20.0082 21.3244 19.9537 21.2704L19.6812 21.1623C19.0817 20.892 18.5368 20.5676 18.1008 20.1352C17.9918 20.0271 17.8283 19.919 17.7193 19.8109C17.3378 19.4326 16.9564 19.0001 16.6839 18.5136L16.6294 18.4055C16.575 18.3514 16.575 18.2974 16.5204 18.1893C16.5204 18.0812 16.5204 17.9731 16.575 17.919C16.575 17.919 16.7929 17.6487 16.9564 17.4866C17.0654 17.3784 17.1199 17.2163 17.2289 17.1082C17.3378 16.946 17.3924 16.7298 17.3378 16.5676C17.2834 16.2974 16.6294 14.8379 16.466 14.5136C16.3569 14.3514 16.248 14.2974 16.0845 14.2433H15.4851C15.376 14.2433 15.2671 14.2974 15.158 14.2974L15.1035 14.3514C14.9945 14.4055 14.8855 14.5136 14.7766 14.5676C14.6676 14.6758 14.613 14.7838 14.5041 14.892C14.1226 15.3785 13.9046 15.9731 13.9046 16.5676C13.9046 17 14.0136 17.4325 14.1771 17.8109L14.2316 17.9731C14.7221 19.0001 15.376 19.919 16.248 20.7298L16.466 20.946C16.6294 21.1082 16.7929 21.2163 16.9019 21.3784C18.0463 22.3515 19.3542 23.0541 20.8256 23.4325C20.9891 23.4865 21.2071 23.4865 21.3706 23.5406H21.9155C22.188 23.5406 22.5149 23.4325 22.733 23.3244C22.8964 23.2163 23.0054 23.2163 23.1144 23.1082L23.2234 23.0001C23.3324 22.892 23.4414 22.838 23.5504 22.7299C23.6594 22.6218 23.7684 22.5137 23.8229 22.4055C23.9319 22.1893 23.9863 21.919 24.0409 21.6488V21.2704C24.0409 21.2704 23.9863 21.2163 23.8773 21.1623Z" fill="white"/>
</svg>
