<svg width="38" height="37" viewBox="0 0 38 37" fill="none" xmlns="http://www.w3.org/2000/svg">
<path d="M0 18.2245C0 8.15938 8.15938 0 18.2245 0H19.7755C29.8406 0 38 8.15938 38 18.2245C38 28.2896 29.8406 36.449 19.7755 36.449H18.2245C8.15938 36.449 0 28.2896 0 18.2245Z" fill="#524050"/>
<path d="M14.2889 25.4375L14.6462 25.625C16.1353 26.5625 17.8029 27 19.4706 27C24.7118 27 29 22.5 29 17C29 14.375 27.9875 11.8125 26.2007 9.93749C24.4139 8.06246 22.0315 7 19.4706 7C14.2293 7 9.94102 11.5 10.0006 17.0625C10.0006 18.9375 10.5366 20.7501 11.43 22.3125L11.6682 22.6875L10.7154 26.3751L14.2889 25.4375Z" fill="#00E676"/>
<path d="M26.2561 9.91891C24.4959 8.02706 22.0627 7 19.5776 7C14.297 7 10.0518 11.4865 10.1035 16.9459C10.1035 18.6757 10.5695 20.3514 11.3461 21.8649L10 27L15.0218 25.6486C16.4196 26.4595 17.9727 26.8379 19.5259 26.8379C24.7548 26.8379 29 22.3513 29 16.892C29 14.2433 28.0162 11.7568 26.2561 9.91891ZM19.5776 25.1622C18.1798 25.1622 16.782 24.7839 15.5913 24.0272L15.2807 23.865L12.278 24.6757L13.0545 21.5947L12.8474 21.2703C10.5695 17.4326 11.6567 12.3513 15.3842 9.97293C19.1117 7.59459 23.9264 8.72974 26.2044 12.6216C28.4823 16.5135 27.395 21.5406 23.6676 23.919C22.4768 24.7298 21.0272 25.1622 19.5776 25.1622ZM24.1335 19.1623L23.564 18.892C23.564 18.892 22.7357 18.5136 22.218 18.2433C22.1662 18.2433 22.1145 18.1892 22.0627 18.1892C21.9073 18.1892 21.8038 18.2433 21.7003 18.2974C21.7003 18.2974 21.6485 18.3514 20.9237 19.2163C20.8719 19.3244 20.7684 19.3785 20.6648 19.3785H20.613C20.5613 19.3785 20.4578 19.3244 20.406 19.2704L20.1471 19.1623C19.5776 18.892 19.06 18.5676 18.6458 18.1352C18.5422 18.0271 18.3869 17.919 18.2833 17.8109C17.9209 17.4326 17.5585 17.0001 17.2997 16.5136L17.2479 16.4055C17.1962 16.3514 17.1962 16.2974 17.1444 16.1893C17.1444 16.0812 17.1444 15.9731 17.1962 15.919C17.1962 15.919 17.4033 15.6487 17.5585 15.4866C17.6622 15.3784 17.7139 15.2163 17.8174 15.1082C17.9209 14.946 17.9727 14.7298 17.9209 14.5676C17.8692 14.2974 17.2479 12.8379 17.0927 12.5136C16.9891 12.3514 16.8856 12.2974 16.7303 12.2433H16.1608C16.0572 12.2433 15.9537 12.2974 15.8501 12.2974L15.7983 12.3514C15.6948 12.4055 15.5913 12.5136 15.4877 12.5676C15.3842 12.6758 15.3324 12.7838 15.2289 12.892C14.8664 13.3785 14.6594 13.9731 14.6594 14.5676C14.6594 15 14.7629 15.4325 14.9183 15.8109L14.9701 15.9731C15.436 17.0001 16.0572 17.919 16.8856 18.7298L17.0927 18.946C17.2479 19.1082 17.4033 19.2163 17.5068 19.3784C18.594 20.3515 19.8365 21.0541 21.2343 21.4325C21.3897 21.4865 21.5967 21.4865 21.7521 21.5406H22.2697C22.5286 21.5406 22.8392 21.4325 23.0463 21.3244C23.2016 21.2163 23.3051 21.2163 23.4087 21.1082L23.5123 21.0001C23.6158 20.892 23.7193 20.838 23.8229 20.7299C23.9264 20.6218 24.0299 20.5137 24.0817 20.4055C24.1853 20.1893 24.237 19.919 24.2888 19.6488V19.2704C24.2888 19.2704 24.237 19.2163 24.1335 19.1623Z" fill="white"/>
</svg>
