<svg width="37" height="37" viewBox="0 0 37 37" fill="none" xmlns="http://www.w3.org/2000/svg">
<path d="M8.22222 4.11111C8.22222 6.29411 6.76278 8.17289 4.10906 8.17289C1.61156 8.17289 0 6.401 0 4.218C0 1.97744 1.56222 0 4.11111 0C6.66 0 8.17289 1.87056 8.22222 4.11111ZM0 37V10.2778H8.22222V37H0ZM12.3333 19.4127C12.3333 16.2368 12.2285 13.5831 12.1237 11.2912H19.5113L19.8772 14.8329H20.0334C21.0736 13.1658 23.6224 10.7218 27.8898 10.7218C33.0944 10.7218 37 14.2059 37 21.7026V37H28.7778V22.8968C28.7778 19.6203 27.5301 17.1207 24.6667 17.1207C22.4837 17.1207 21.3901 18.8885 20.8166 20.3459C20.6069 20.868 20.5556 21.5957 20.5556 22.3254V37H12.3333V19.4127Z" fill="#524050"/>
</svg>
