<svg width="33" height="33" viewBox="0 0 33 33" fill="none" xmlns="http://www.w3.org/2000/svg">
<path d="M16.5 0.220002C14.3619 0.219516 12.2447 0.640278 10.2693 1.45825C8.29391 2.27623 6.49902 3.47538 4.98719 4.98722C3.47535 6.49905 2.2762 8.29394 1.45822 10.2693C0.640248 12.2447 0.219485 14.3619 0.219971 16.5C0.219971 19.7199 1.17478 22.8674 2.96365 25.5447C4.75251 28.2219 7.2951 30.3086 10.2699 31.5408C13.2447 32.7729 16.518 33.0953 19.676 32.4672C22.8341 31.839 25.7349 30.2885 28.0117 28.0117C30.2885 25.7349 31.839 22.8341 32.4672 19.6761C33.0953 16.5181 32.7729 13.2447 31.5407 10.2699C30.3085 7.29513 28.2219 4.75254 25.5447 2.96368C22.8674 1.17481 19.7199 0.220002 16.5 0.220002ZM22.9343 24.8287C22.6142 24.8287 22.3904 24.7066 22.1554 24.5641C19.9558 23.2303 17.2307 22.531 14.2781 22.531C12.7722 22.531 11.1461 22.7104 9.44962 23.0582L9.24242 23.11C9.02782 23.1618 8.80767 23.2192 8.63932 23.2192C8.47883 23.2217 8.31947 23.192 8.1706 23.132C8.02172 23.072 7.88635 22.9829 7.77242 22.8698C7.65849 22.7568 7.56832 22.6221 7.50719 22.4736C7.44606 22.3252 7.41522 22.1661 7.41647 22.0056C7.41647 21.3155 7.80497 20.8271 8.45617 20.705C10.3676 20.2559 12.3239 20.0251 14.2874 20.0168C17.7191 20.0168 20.7864 20.8123 23.4097 22.383C23.8593 22.6457 24.1423 22.9491 24.1423 23.6188C24.1418 23.9392 24.0145 24.2464 23.7881 24.4731C23.5617 24.6999 23.2547 24.8277 22.9343 24.8287ZM24.6233 20.0908C24.2404 20.0908 23.9888 19.9447 23.7668 19.8152C19.8022 17.4638 13.9007 16.6831 9.03892 17.9781C8.96454 17.9997 8.89053 18.0225 8.81692 18.0466C8.63377 18.1039 8.46357 18.1613 8.22307 18.1613C7.83774 18.1598 7.46875 18.0055 7.19714 17.7321C6.92554 17.4588 6.77354 17.0888 6.77452 16.7035C6.77452 15.9283 7.17967 15.3863 7.91042 15.1791C9.78447 14.6648 11.5438 14.3244 14.0765 14.3244C18.1687 14.3244 22.1369 15.3511 25.2468 17.2122C25.8129 17.536 26.07 17.9781 26.07 18.6386C26.0705 19.0229 25.9184 19.3918 25.6472 19.6641C25.3759 19.9364 25.0077 20.0899 24.6233 20.0908ZM26.5399 14.6888C26.1792 14.6888 25.9572 14.6019 25.6242 14.4224C22.9361 12.8092 18.7422 11.8491 14.3965 11.8491C12.1321 11.8491 10.0749 12.0988 8.28042 12.5835C8.21959 12.5987 8.15914 12.6154 8.09912 12.6335C7.88134 12.708 7.65387 12.7504 7.42387 12.7593C7.19869 12.7606 6.97552 12.7168 6.76746 12.6307C6.55941 12.5445 6.37066 12.4177 6.21229 12.2576C6.05393 12.0975 5.92913 11.9074 5.84523 11.6984C5.76133 11.4894 5.72002 11.2658 5.72372 11.0406C5.72372 10.2026 6.19362 9.5625 6.98172 9.3294C9.14807 8.6893 11.6419 8.36555 14.3928 8.36555C19.3471 8.36555 24.0609 9.4663 27.3262 11.3829C27.9404 11.7325 28.2419 12.2616 28.2419 12.9961C28.2437 13.2197 28.2008 13.4413 28.1157 13.6481C28.0307 13.8549 27.9052 14.0426 27.7467 14.2002C27.5882 14.3579 27.3998 14.4823 27.1926 14.5662C26.9854 14.6501 26.7635 14.6918 26.5399 14.6888Z" fill="#524050"/>
</svg>
