<svg width="33" height="33" viewBox="0 0 33 33" fill="none" xmlns="http://www.w3.org/2000/svg">
<path d="M16.28 4.20685e-07C14.1419 -0.000485667 12.0247 0.420277 10.0493 1.23825C8.07394 2.05623 6.27905 3.25538 4.76722 4.76722C3.25538 6.27905 2.05623 8.07394 1.23825 10.0493C0.420277 12.0247 -0.000485667 14.1419 4.20685e-07 16.28C4.20685e-07 19.4999 0.954805 22.6474 2.74367 25.3247C4.53254 28.0019 7.07513 30.0886 10.0499 31.3208C13.0247 32.5529 16.2981 32.8753 19.4561 32.2472C22.6141 31.619 25.5149 30.0685 27.7917 27.7917C30.0685 25.5149 31.619 22.6141 32.2472 19.4561C32.8754 16.2981 32.553 13.0247 31.3208 10.0499C30.0886 7.07513 28.0019 4.53254 25.3247 2.74367C22.6474 0.954805 19.4999 4.20685e-07 16.28 4.20685e-07ZM22.7143 24.6087C22.3942 24.6087 22.1704 24.4866 21.9354 24.3441C19.7358 23.0103 17.0107 22.311 14.0581 22.311C12.5522 22.311 10.9261 22.4904 9.22965 22.8382L9.02245 22.89C8.80785 22.9418 8.5877 22.9992 8.41935 22.9992C8.25886 23.0017 8.0995 22.972 7.95062 22.912C7.80175 22.852 7.66637 22.7629 7.55245 22.6498C7.43852 22.5368 7.34835 22.4021 7.28722 22.2536C7.22609 22.1052 7.19525 21.9461 7.1965 21.7856C7.1965 21.0955 7.585 20.6071 8.2362 20.485C10.1477 20.0359 12.1039 19.8051 14.0674 19.7968C17.4991 19.7968 20.5664 20.5923 23.1897 22.163C23.6393 22.4257 23.9223 22.7291 23.9223 23.3988C23.9219 23.7192 23.7945 24.0264 23.5681 24.2531C23.3417 24.4799 23.0347 24.6077 22.7143 24.6087ZM24.4033 19.8708C24.0204 19.8708 23.7688 19.7247 23.5468 19.5952C19.5823 17.2438 13.6807 16.4631 8.81895 17.7581C8.74457 17.7797 8.67056 17.8025 8.59695 17.8266C8.4138 17.8839 8.2436 17.9413 8.0031 17.9413C7.61777 17.9398 7.24878 17.7855 6.97717 17.5121C6.70557 17.2388 6.55357 16.8688 6.55455 16.4835C6.55455 15.7083 6.9597 15.1663 7.69045 14.9591C9.5645 14.4448 11.3238 14.1044 13.8565 14.1044C17.9487 14.1044 21.9169 15.1311 25.0268 16.9922C25.5929 17.316 25.85 17.7581 25.85 18.4186C25.8505 18.8029 25.6985 19.1718 25.4272 19.4441C25.1559 19.7164 24.7877 19.8699 24.4033 19.8708ZM26.3199 14.4688C25.9592 14.4688 25.7372 14.3819 25.4042 14.2024C22.7162 12.5892 18.5222 11.6291 14.1765 11.6291C11.9121 11.6291 9.85495 11.8788 8.06045 12.3635C7.99962 12.3787 7.93917 12.3954 7.87915 12.4135C7.66137 12.488 7.4339 12.5304 7.2039 12.5393C6.97872 12.5406 6.75555 12.4968 6.54749 12.4107C6.33944 12.3245 6.15069 12.1977 5.99232 12.0376C5.83395 11.8775 5.70916 11.6874 5.62526 11.4784C5.54136 11.2694 5.50005 11.0458 5.50375 10.8206C5.50375 9.9826 5.97365 9.3425 6.76175 9.1094C8.9281 8.4693 11.4219 8.14555 14.1728 8.14555C19.1271 8.14555 23.841 9.2463 27.1062 11.1629C27.7204 11.5125 28.0219 12.0416 28.0219 12.7761C28.0237 12.9997 27.9808 13.2213 27.8958 13.4281C27.8107 13.6349 27.6853 13.8226 27.5268 13.9802C27.3682 14.1379 27.1798 14.2623 26.9726 14.3462C26.7654 14.4301 26.5435 14.4718 26.3199 14.4688Z" fill="#E2DDB0"/>
</svg>
