<svg width="35" height="29" viewBox="0 0 35 29" fill="none" xmlns="http://www.w3.org/2000/svg">
<path d="M23.383 16.9217C22.0547 16.9217 20.978 18.4146 20.978 20.2498C20.978 22.0887 22.0547 23.5817 23.383 23.5817C24.7113 23.5817 25.788 22.0887 25.788 20.2498C25.7861 18.4146 24.7113 16.9217 23.383 16.9217ZM31.7561 8.25811C32.0317 7.58286 32.0428 3.74596 30.5813 0.0700073C30.5813 0.0700073 27.231 0.438158 22.162 3.91801C21.0982 3.62201 19.2982 3.47771 17.5018 3.47771C15.7018 3.47771 13.9036 3.62201 12.8398 3.91801C7.76898 0.438158 4.41863 0.0700073 4.41863 0.0700073C2.95898 3.74596 2.97378 7.58286 3.24573 8.25811C1.52893 10.1229 0.47998 12.3633 0.47998 15.4195C0.47998 28.7136 11.5115 28.9263 14.2939 28.9263L17.5018 28.93L20.706 28.9263C23.4921 28.9263 34.52 28.7136 34.52 15.4195C34.52 12.3633 33.4729 10.1229 31.7561 8.25811ZM17.5518 27.2928H17.4482C10.4718 27.2928 5.03653 26.4621 5.03653 19.68C5.03653 18.0539 5.61003 16.548 6.97348 15.2974C9.24343 13.2124 13.0877 14.315 17.4482 14.315H17.5518C21.9122 14.315 25.7584 13.2124 28.0302 15.2974C29.3899 16.548 29.9634 18.0539 29.9634 19.68C29.9634 26.4621 24.53 27.2928 17.5518 27.2928ZM11.6188 16.9217C10.2905 16.9217 9.21383 18.4146 9.21383 20.2498C9.21383 22.0887 10.2905 23.5817 11.6188 23.5817C12.949 23.5817 14.0257 22.0887 14.0257 20.2498C14.0257 18.4146 12.949 16.9217 11.6188 16.9217Z" fill="#524050"/>
</svg>
