<svg width="35" height="29" viewBox="0 0 35 29" fill="none" xmlns="http://www.w3.org/2000/svg">
<path d="M22.903 16.8517C21.5747 16.8517 20.498 18.3446 20.498 20.1798C20.498 22.0187 21.5747 23.5117 22.903 23.5117C24.2313 23.5117 25.308 22.0187 25.308 20.1798C25.3062 18.3446 24.2313 16.8517 22.903 16.8517ZM31.2761 8.1881C31.5518 7.51285 31.5629 3.67595 30.1014 0C30.1014 0 26.751 0.36815 21.682 3.848C20.6183 3.552 18.8182 3.4077 17.0219 3.4077C15.2218 3.4077 13.4236 3.552 12.3599 3.848C7.289 0.36815 3.93865 0 3.93865 0C2.479 3.67595 2.4938 7.51285 2.76575 8.1881C1.04895 10.0529 0 12.2933 0 15.3495C0 28.6436 11.0316 28.8563 13.814 28.8563L17.0219 28.86L20.2261 28.8563C23.0122 28.8563 34.04 28.6436 34.04 15.3495C34.04 12.2933 32.9929 10.0529 31.2761 8.1881ZM17.0718 27.2228H16.9682C9.99185 27.2228 4.55655 26.3921 4.55655 19.61C4.55655 17.9839 5.13005 16.478 6.4935 15.2274C8.76345 13.1424 12.6078 14.245 16.9682 14.245H17.0718C21.4323 14.245 25.2784 13.1424 27.5502 15.2274C28.91 16.478 29.4835 17.9839 29.4835 19.61C29.4835 26.3921 24.05 27.2228 17.0718 27.2228ZM11.1389 16.8517C9.81055 16.8517 8.73385 18.3446 8.73385 20.1798C8.73385 22.0187 9.81055 23.5117 11.1389 23.5117C12.469 23.5117 13.5457 22.0187 13.5457 20.1798C13.5457 18.3446 12.469 16.8517 11.1389 16.8517Z" fill="url(#paint0_linear_9_344)"/>
<defs>
<linearGradient id="paint0_linear_9_344" x1="17.02" y1="0" x2="17.02" y2="28.86" gradientUnits="userSpaceOnUse">
<stop offset="0.130208" stop-color="#FFE609"/>
<stop offset="0.546875" stop-color="#FBEB7F"/>
<stop offset="0.911458" stop-color="#EBBA0D"/>
<stop offset="1" stop-color="#6D5A13"/>
</linearGradient>
</defs>
</svg>
