<svg width="38" height="38" viewBox="0 0 38 38" fill="none" xmlns="http://www.w3.org/2000/svg">
<rect x="0.5" y="0.5" width="37" height="37" rx="18.5" fill="#55B3CB" stroke="url(#paint0_radial_9_390)"/>
<path d="M26.9 14.6316H21.0074L22.1865 10.9102C22.3986 10.2382 22.2915 9.49321 21.8978 8.91847C21.504 8.34374 20.8657 8 20.1926 8H18.5C18.1881 8 17.8931 8.14589 17.6925 8.39789L12.7575 14.6316H10.1C8.94185 14.6316 8 15.623 8 16.8421V26.7895C8 28.0086 8.94185 29 10.1 29H24.0723C24.4996 28.9985 24.9163 28.8606 25.2675 28.6044C25.6186 28.3482 25.8877 27.9859 26.039 27.5654L28.9338 19.4406C28.9778 19.3165 29.0002 19.1851 29 19.0526V16.8421C29 15.623 28.0581 14.6316 26.9 14.6316ZM10.1 16.8421H12.2V26.7895H10.1V16.8421ZM26.9 18.8526L24.0723 26.7895H14.3V16.1369L18.9914 10.2105H20.1947L18.5546 15.3865C18.5014 15.5526 18.4865 15.7297 18.5113 15.9031C18.5361 16.0765 18.5997 16.2412 18.697 16.3835C18.7944 16.5258 18.9225 16.6416 19.0708 16.7214C19.2192 16.8011 19.3834 16.8425 19.55 16.8421H26.9V18.8526Z" fill="#E2DDB0"/>
<defs>
<radialGradient id="paint0_radial_9_390" cx="0" cy="0" r="1" gradientUnits="userSpaceOnUse" gradientTransform="translate(19 19) rotate(90) scale(19)">
<stop stop-color="#AE9326"/>
<stop offset="1" stop-color="#FFE609"/>
</radialGradient>
</defs>
</svg>
