<svg width="48" height="44" viewBox="0 0 48 44" fill="none" xmlns="http://www.w3.org/2000/svg">
<g filter="url(#filter0_d_9_427)">
<rect x="4.5" y="0.744873" width="39" height="37.449" rx="18.7245" fill="#524050" stroke="url(#paint0_radial_9_427)"/>
<path d="M31.0312 23.7407C30.1963 23.7407 29.4258 24.0217 28.8223 24.491L22.752 20.2787C22.8536 19.7435 22.8536 19.1952 22.752 18.66L28.8223 14.4477C29.4258 14.917 30.1963 15.198 31.0312 15.198C32.9707 15.198 34.5469 13.6862 34.5469 11.8259C34.5469 9.96557 32.9707 8.45374 31.0312 8.45374C29.0918 8.45374 27.5156 9.96557 27.5156 11.8259C27.5156 12.1518 27.5625 12.4638 27.6533 12.7616L21.8877 16.766C21.0322 15.6785 19.6729 14.9732 18.1406 14.9732C15.5508 14.9732 13.4531 16.9852 13.4531 19.4694C13.4531 21.9535 15.5508 23.9655 18.1406 23.9655C19.6729 23.9655 21.0322 23.2602 21.8877 22.1727L27.6533 26.1771C27.5625 26.475 27.5156 26.7897 27.5156 27.1129C27.5156 28.9731 29.0918 30.485 31.0312 30.485C32.9707 30.485 34.5469 28.9731 34.5469 27.1129C34.5469 25.2526 32.9707 23.7407 31.0312 23.7407ZM31.0312 10.3646C31.8721 10.3646 32.5547 11.0194 32.5547 11.8259C32.5547 12.6324 31.8721 13.2871 31.0312 13.2871C30.1904 13.2871 29.5078 12.6324 29.5078 11.8259C29.5078 11.0194 30.1904 10.3646 31.0312 10.3646ZM18.1406 21.9423C16.7197 21.9423 15.5625 20.8323 15.5625 19.4694C15.5625 18.1065 16.7197 16.9965 18.1406 16.9965C19.5615 16.9965 20.7188 18.1065 20.7188 19.4694C20.7188 20.8323 19.5615 21.9423 18.1406 21.9423ZM31.0312 28.5741C30.1904 28.5741 29.5078 27.9194 29.5078 27.1129C29.5078 26.3064 30.1904 25.6516 31.0312 25.6516C31.8721 25.6516 32.5547 26.3064 32.5547 27.1129C32.5547 27.9194 31.8721 28.5741 31.0312 28.5741Z" fill="#E2DDB0"/>
</g>
<defs>
<filter id="filter0_d_9_427" x="0" y="0" width="48" height="46.6938" filterUnits="userSpaceOnUse" color-interpolation-filters="sRGB">
<feFlood flood-opacity="0" result="BackgroundImageFix"/>
<feColorMatrix in="SourceAlpha" type="matrix" values="0 0 0 0 0 0 0 0 0 0 0 0 0 0 0 0 0 0 127 0" result="hardAlpha"/>
<feOffset dy="4"/>
<feGaussianBlur stdDeviation="2"/>
<feComposite in2="hardAlpha" operator="out"/>
<feColorMatrix type="matrix" values="0 0 0 0 1 0 0 0 0 0.96875 0 0 0 0 0.6875 0 0 0 1 0"/>
<feBlend mode="normal" in2="BackgroundImageFix" result="effect1_dropShadow_9_427"/>
<feBlend mode="normal" in="SourceGraphic" in2="effect1_dropShadow_9_427" result="shape"/>
</filter>
<radialGradient id="paint0_radial_9_427" cx="0" cy="0" r="1" gradientUnits="userSpaceOnUse" gradientTransform="translate(24 19.4694) rotate(90) scale(18.2245 19)">
<stop stop-color="#7B691A"/>
<stop offset="1" stop-color="#FFE500"/>
</radialGradient>
</defs>
</svg>
