<svg width="46" height="44" viewBox="0 0 46 44" fill="none" xmlns="http://www.w3.org/2000/svg">
<g filter="url(#filter0_d_7_174)">
<rect x="4.5" y="0.5" width="37" height="37" rx="18.5" fill="#E2DDB0" stroke="url(#paint0_radial_7_174)"/>
<path d="M30.0312 23.4531C29.1963 23.4531 28.4258 23.7461 27.8223 24.2354L21.752 19.8438C21.8536 19.2858 21.8536 18.7142 21.752 18.1562L27.8223 13.7646C28.4258 14.2539 29.1963 14.5469 30.0312 14.5469C31.9707 14.5469 33.5469 12.9707 33.5469 11.0312C33.5469 9.0918 31.9707 7.51562 30.0312 7.51562C28.0918 7.51562 26.5156 9.0918 26.5156 11.0312C26.5156 11.3711 26.5625 11.6963 26.6533 12.0068L20.8877 16.1816C20.0322 15.0479 18.6729 14.3125 17.1406 14.3125C14.5508 14.3125 12.4531 16.4102 12.4531 19C12.4531 21.5898 14.5508 23.6875 17.1406 23.6875C18.6729 23.6875 20.0322 22.9521 20.8877 21.8184L26.6533 25.9932C26.5625 26.3037 26.5156 26.6318 26.5156 26.9688C26.5156 28.9082 28.0918 30.4844 30.0312 30.4844C31.9707 30.4844 33.5469 28.9082 33.5469 26.9688C33.5469 25.0293 31.9707 23.4531 30.0312 23.4531ZM30.0312 9.50781C30.8721 9.50781 31.5547 10.1904 31.5547 11.0312C31.5547 11.8721 30.8721 12.5547 30.0312 12.5547C29.1904 12.5547 28.5078 11.8721 28.5078 11.0312C28.5078 10.1904 29.1904 9.50781 30.0312 9.50781ZM17.1406 21.5781C15.7197 21.5781 14.5625 20.4209 14.5625 19C14.5625 17.5791 15.7197 16.4219 17.1406 16.4219C18.5615 16.4219 19.7188 17.5791 19.7188 19C19.7188 20.4209 18.5615 21.5781 17.1406 21.5781ZM30.0312 28.4922C29.1904 28.4922 28.5078 27.8096 28.5078 26.9688C28.5078 26.1279 29.1904 25.4453 30.0312 25.4453C30.8721 25.4453 31.5547 26.1279 31.5547 26.9688C31.5547 27.8096 30.8721 28.4922 30.0312 28.4922Z" fill="#AB922C"/>
</g>
<defs>
<filter id="filter0_d_7_174" x="0" y="0" width="46" height="46" filterUnits="userSpaceOnUse" color-interpolation-filters="sRGB">
<feFlood flood-opacity="0" result="BackgroundImageFix"/>
<feColorMatrix in="SourceAlpha" type="matrix" values="0 0 0 0 0 0 0 0 0 0 0 0 0 0 0 0 0 0 127 0" result="hardAlpha"/>
<feOffset dy="4"/>
<feGaussianBlur stdDeviation="2"/>
<feComposite in2="hardAlpha" operator="out"/>
<feColorMatrix type="matrix" values="0 0 0 0 0.509804 0 0 0 0 0.901961 0 0 0 0 1 0 0 0 0.25 0"/>
<feBlend mode="normal" in2="BackgroundImageFix" result="effect1_dropShadow_7_174"/>
<feBlend mode="normal" in="SourceGraphic" in2="effect1_dropShadow_7_174" result="shape"/>
</filter>
<radialGradient id="paint0_radial_7_174" cx="0" cy="0" r="1" gradientUnits="userSpaceOnUse" gradientTransform="translate(23 19) rotate(90) scale(19)">
<stop stop-color="#AE9326"/>
<stop offset="1" stop-color="#FFE609"/>
</radialGradient>
</defs>
</svg>
