<svg width="35" height="29" viewBox="0 0 35 29" fill="none" xmlns="http://www.w3.org/2000/svg">
<path d="M31.0346 7.5551C31.0494 7.8548 31.0549 8.1582 31.0549 8.4579C31.0549 17.6894 24.0305 28.3306 11.1859 28.3306C7.23988 28.3306 3.57133 27.1743 0.47998 25.1911C2.30848 25.4123 4.16262 25.2709 5.93644 24.775C7.71026 24.2792 9.36898 23.4387 10.8178 22.3014C9.36075 22.2739 7.94875 21.7917 6.77919 20.9224C5.60963 20.053 4.74098 18.8399 4.29468 17.4526C5.3419 17.6484 6.41967 17.6073 7.44893 17.3323C5.86831 17.0118 4.44712 16.1547 3.42619 14.9062C2.40526 13.6577 1.8474 12.0946 1.84713 10.4818V10.3948C2.81689 10.9343 3.90149 11.2343 5.01063 11.2699C3.5304 10.2831 2.48256 8.76855 2.081 7.03544C1.67944 5.30233 1.95443 3.48131 2.84983 1.94405C4.60324 4.102 6.79098 5.86697 9.27095 7.12433C11.7509 8.38168 14.4677 9.1033 17.2447 9.2423C17.1245 8.71989 17.0643 8.18549 17.0652 7.64945C17.0652 6.73266 17.2458 5.82485 17.5967 4.97787C17.9476 4.13089 18.4619 3.36133 19.1103 2.71315C19.7586 2.06497 20.5283 1.55086 21.3754 1.20019C22.2225 0.849519 23.1303 0.669154 24.0471 0.669397C25.0026 0.667839 25.9482 0.862611 26.8252 1.24163C27.7023 1.62065 28.4921 2.17584 29.1457 2.87275C30.7092 2.56324 32.2087 1.99021 33.5802 1.17815C33.0586 2.79542 31.9672 4.16816 30.5092 5.04095C31.8935 4.87684 33.2454 4.50644 34.52 3.94205C33.5836 5.34516 32.4031 6.56889 31.0346 7.5551Z" fill="#524050"/>
</svg>
