<svg width="35" height="28" viewBox="0 0 35 28" fill="none" xmlns="http://www.w3.org/2000/svg">
<path d="M30.5546 6.88571C30.5694 7.18541 30.575 7.48881 30.575 7.78851C30.575 17.02 23.5505 27.6612 10.706 27.6612C6.7599 27.6612 3.09135 26.505 0 24.5218C1.82849 24.7429 3.68264 24.6015 5.45646 24.1056C7.23028 23.6098 8.889 22.7693 10.3378 21.6321C8.88077 21.6045 7.46877 21.1224 6.29921 20.253C5.12965 19.3836 4.261 18.1705 3.8147 16.7832C4.86191 16.979 5.93969 16.938 6.96895 16.663C5.38833 16.3425 3.96714 15.4853 2.94621 14.2368C1.92528 12.9883 1.36742 11.4252 1.36715 9.81241V9.72546C2.33691 10.2649 3.42151 10.5649 4.53065 10.6005C3.05042 9.61369 2.00258 8.09916 1.60102 6.36605C1.19946 4.63294 1.47444 2.81192 2.36985 1.27466C4.12326 3.43261 6.311 5.19759 8.79097 6.45494C11.2709 7.7123 13.9877 8.43391 16.7647 8.57291C16.6446 8.0505 16.5844 7.5161 16.5853 6.98006C16.5853 6.06327 16.7659 5.15546 17.1168 4.30848C17.4676 3.4615 17.982 2.69195 18.6303 2.04376C19.2787 1.39558 20.0484 0.881474 20.8954 0.530803C21.7425 0.180131 22.6504 -0.000233711 23.5672 9.27564e-06C24.5226 -0.0015489 25.4682 0.193223 26.3452 0.572243C27.2223 0.951263 28.0121 1.50645 28.6658 2.20336C30.2292 1.89385 31.7288 1.32082 33.1002 0.508759C32.5786 2.12604 31.4872 3.49877 30.0292 4.37156C31.4135 4.20745 32.7654 3.83705 34.04 3.27266C33.1036 4.67577 31.9231 5.8995 30.5546 6.88571Z" fill="url(#paint0_linear_9_294)"/>
<defs>
<linearGradient id="paint0_linear_9_294" x1="17.02" y1="0" x2="17.02" y2="27.6612" gradientUnits="userSpaceOnUse">
<stop offset="0.130208" stop-color="#FFE609"/>
<stop offset="0.546875" stop-color="#FBEB7F"/>
<stop offset="0.911458" stop-color="#EBBA0D"/>
<stop offset="1" stop-color="#6D5A13"/>
</linearGradient>
</defs>
</svg>
