<svg width="35" height="35" viewBox="0 0 35 35" fill="none" xmlns="http://www.w3.org/2000/svg">
<path d="M16.6953 12.7289C14.183 8.26296 11.4949 4.62031 11.2988 4.35206C9.26998 5.31181 7.49027 6.72728 6.09852 8.48807C4.70677 10.2489 3.7406 12.3074 3.27537 14.503C3.65647 14.5104 9.71707 14.5826 16.6953 12.7289ZM18.5046 17.6129C18.6943 17.5521 18.8848 17.4941 19.0762 17.439C18.7067 16.6042 18.3138 15.78 17.8978 14.9674C10.4127 17.2096 3.23097 17.0468 2.97752 17.0394C2.97197 17.1948 2.96457 17.3465 2.96457 17.5019C2.96457 21.237 4.37612 24.6447 6.69417 27.2181L6.68492 27.207C6.68492 27.207 10.6624 20.1511 18.5046 17.6129ZM8.56637 28.9589V28.9515C8.45907 28.8683 8.34437 28.7924 8.23707 28.7018C8.43317 28.859 8.56637 28.9589 8.56637 28.9589ZM14.0183 3.38821C14.0091 3.39081 13.9999 3.39328 13.9906 3.39561C14.0017 3.39191 14.0165 3.39191 14.0165 3.39191L14.0183 3.38821ZM27.0997 6.59241C24.4497 4.25219 21.0354 2.96186 17.5 2.96456C16.3179 2.96456 15.1727 3.10886 14.0738 3.37341C14.2958 3.66941 17.0246 7.29356 19.5091 11.8538C24.9888 9.80216 27.059 6.65161 27.0997 6.59241ZM17.5 34.52C12.9867 34.5195 8.65833 32.7264 5.46692 29.535C2.2755 26.3436 0.482364 22.0152 0.481873 17.5019C0.481387 15.2667 0.921216 13.0533 1.77624 10.9882C2.63126 8.923 3.88474 7.04649 5.46507 5.46582C7.04539 3.88515 8.92163 2.63127 10.9866 1.77579C13.0516 0.920321 15.2649 0.480011 17.5 0.480011C19.7353 0.480011 21.9486 0.920308 24.0137 1.77576C26.0788 2.63121 27.9552 3.88506 29.5356 5.46571C31.1161 7.04636 32.3698 8.92285 33.225 10.988C34.0802 13.0532 34.5203 15.2666 34.52 17.5019C34.5195 22.0155 32.7261 26.3442 29.5343 29.5356C26.3425 32.7271 22.0137 34.52 17.5 34.52ZM19.9716 19.8791C11.4413 22.8521 8.62372 28.8294 8.56637 28.9515C11.1146 30.9498 14.2598 32.0351 17.4982 32.0336C19.4475 32.0363 21.3774 31.6456 23.1721 30.8848C22.9575 29.6101 22.1121 25.1572 20.066 19.8458C20.0347 19.8575 20.0033 19.8686 19.9716 19.8791ZM20.6265 14.022C20.9669 14.7121 21.2888 15.4169 21.5941 16.1292C21.7032 16.3789 21.805 16.6324 21.9086 16.8803C26.9276 16.2476 31.8708 17.3206 32.0336 17.3539C32.0036 14.0358 30.8367 10.8284 28.7277 8.26666C28.6944 8.30921 26.3615 11.6762 20.6265 14.022ZM22.7929 19.1743C24.7002 24.4209 25.4735 28.687 25.6215 29.5546C27.2718 28.4424 28.6762 27.0032 29.7477 25.3262C30.8191 23.6492 31.5348 21.77 31.8505 19.8051C31.5619 19.7126 27.4919 18.4232 22.7929 19.1743Z" fill="#524050"/>
</svg>
