<svg width="35" height="35" viewBox="0 0 35 35" fill="none" xmlns="http://www.w3.org/2000/svg">
<path d="M16.2134 12.2489C13.7011 7.78295 11.0131 4.1403 10.817 3.87205C8.78811 4.8318 7.0084 6.24727 5.61665 8.00806C4.2249 9.76885 3.25873 11.8273 2.7935 14.023C3.1746 14.0304 9.2352 14.1026 16.2134 12.2489ZM18.0227 17.1329C18.2124 17.0721 18.403 17.0141 18.5944 16.959C18.2249 16.1242 17.8319 15.3 17.4159 14.4873C9.9308 16.7295 2.7491 16.5668 2.49565 16.5594C2.4901 16.7148 2.4827 16.8665 2.4827 17.0219C2.4827 20.757 3.89425 24.1647 6.2123 26.7381L6.20305 26.727C6.20305 26.727 10.1806 19.6711 18.0227 17.1329ZM8.0845 28.4789V28.4715C7.9772 28.3883 7.8625 28.3124 7.7552 28.2218C7.9513 28.379 8.0845 28.4789 8.0845 28.4789ZM13.5365 2.9082C13.5272 2.9108 13.518 2.91327 13.5087 2.9156C13.5198 2.9119 13.5346 2.9119 13.5346 2.9119L13.5365 2.9082ZM26.6178 6.1124C23.9678 3.77217 20.5535 2.48185 17.0182 2.48455C15.836 2.48455 14.6909 2.62885 13.592 2.8934C13.814 3.1894 16.5427 6.81355 19.0273 11.3738C24.507 9.32215 26.5771 6.1716 26.6178 6.1124ZM17.0182 34.04C12.5048 34.0395 8.17646 32.2464 4.98504 29.055C1.79363 25.8635 0.000490956 21.5352 4.02255e-07 17.0219C-0.000485556 14.7867 0.439343 12.5733 1.29437 10.5082C2.14939 8.44299 3.40286 6.56648 4.98319 4.98581C6.56352 3.40514 8.43975 2.15126 10.5047 1.29578C12.5697 0.44031 14.783 -5.28273e-08 17.0182 0C19.2534 -1.32045e-08 21.4668 0.440297 23.5319 1.29575C25.5969 2.1512 27.4733 3.40505 29.0538 4.9857C30.6342 6.56635 31.8879 8.44283 32.7431 10.508C33.5983 12.5732 34.0384 14.7866 34.0382 17.0219C34.0377 21.5355 32.2443 25.8641 29.0525 29.0556C25.8606 32.2471 21.5318 34.04 17.0182 34.04ZM19.4898 19.3991C10.9594 22.3721 8.14185 28.3494 8.0845 28.4715C10.6328 30.4698 13.7779 31.5551 17.0163 31.5536C18.9657 31.5563 20.8955 31.1656 22.6903 30.4048C22.4757 29.1301 21.6302 24.6772 19.5841 19.3658C19.5529 19.3775 19.5214 19.3886 19.4898 19.3991ZM20.1446 13.542C20.4851 14.2321 20.807 14.9369 21.1122 15.6492C21.2214 15.8989 21.3231 16.1524 21.4267 16.4003C26.4458 15.7676 31.389 16.8405 31.5518 16.8738C31.5217 13.5558 30.3548 10.3484 28.2458 7.78665C28.2125 7.8292 25.8797 11.1962 20.1446 13.542ZM22.311 18.6943C24.2184 23.9409 24.9917 28.207 25.1397 29.0746C26.79 27.9624 28.1943 26.5232 29.2658 24.8462C30.3372 23.1692 31.053 21.29 31.3686 19.3251C31.08 19.2326 27.01 17.9432 22.311 18.6943Z" fill="url(#paint0_linear_9_353)"/>
<defs>
<linearGradient id="paint0_linear_9_353" x1="17.0191" y1="0" x2="17.0191" y2="34.04" gradientUnits="userSpaceOnUse">
<stop offset="0.130208" stop-color="#FFE609"/>
<stop offset="0.546875" stop-color="#FBEB7F"/>
<stop offset="0.911458" stop-color="#EBBA0D"/>
<stop offset="1" stop-color="#6D5A13"/>
</linearGradient>
</defs>
</svg>
