<svg width="35" height="35" viewBox="0 0 35 35" fill="none" xmlns="http://www.w3.org/2000/svg">
<path d="M30.45 0.849998H4.54998C2.51498 0.849998 0.849976 2.515 0.849976 4.55V30.45C0.849976 32.4868 2.51498 34.15 4.54998 34.15H30.45C32.485 34.15 34.15 32.4868 34.15 30.45V4.55C34.15 2.515 32.485 0.849998 30.45 0.849998ZM17.4704 27.7175C20.1878 27.7171 22.7937 26.6372 24.715 24.7156C26.6363 22.7939 27.7157 20.1878 27.7157 17.4704C27.7157 16.8451 27.6361 16.242 27.5251 15.65H30.45V28.9996C30.45 29.1677 30.4168 29.3341 30.3523 29.4894C30.2878 29.6446 30.1933 29.7856 30.0741 29.9042C29.955 30.0228 29.8136 30.1167 29.6581 30.1805C29.5026 30.2443 29.336 30.2768 29.1679 30.2761H5.83203C5.66393 30.2768 5.49734 30.2443 5.34183 30.1805C5.18631 30.1167 5.04494 30.0228 4.92581 29.9042C4.80669 29.7856 4.71217 29.6446 4.64767 29.4894C4.58317 29.3341 4.54997 29.1677 4.54998 28.9996V15.65H7.41562C7.30277 16.242 7.22323 16.8451 7.22323 17.4704C7.22372 20.188 8.30348 22.7941 10.2251 24.7157C12.1467 26.6373 14.7528 27.7171 17.4704 27.7175ZM11.0675 17.4704C11.0675 16.6296 11.2331 15.797 11.5549 15.0201C11.8767 14.2433 12.3483 13.5375 12.9429 12.9429C13.5374 12.3483 14.2433 11.8767 15.0201 11.5549C15.7969 11.2332 16.6295 11.0675 17.4704 11.0675C18.3112 11.0675 19.1438 11.2332 19.9206 11.5549C20.6975 11.8767 21.4033 12.3483 21.9979 12.9429C22.5924 13.5375 23.0641 14.2433 23.3858 15.0201C23.7076 15.797 23.8732 16.6296 23.8732 17.4704C23.8732 19.1685 23.1986 20.7971 21.9979 21.9979C20.7971 23.1987 19.1685 23.8732 17.4704 23.8732C15.7722 23.8732 14.1436 23.1987 12.9429 21.9979C11.7421 20.7971 11.0675 19.1685 11.0675 17.4704ZM29.1679 10.1H26.1802C25.8409 10.099 25.5159 9.96383 25.276 9.72396C25.0361 9.48409 24.901 9.15903 24.9 8.8198V5.82835C24.9 5.12165 25.4735 4.55 26.1783 4.55H29.1661C29.8765 4.55 30.45 5.12165 30.45 5.82835V8.81795C30.45 9.5228 29.8765 10.1 29.1679 10.1Z" fill="#524050"/>
</svg>
