<svg width="34" height="34" viewBox="0 0 34 34" fill="none" xmlns="http://www.w3.org/2000/svg">
<path d="M29.6 0H3.7C1.665 0 0 1.665 0 3.7V29.6C0 31.6368 1.665 33.3 3.7 33.3H29.6C31.635 33.3 33.3 31.6368 33.3 29.6V3.7C33.3 1.665 31.635 0 29.6 0ZM16.6204 26.8675C19.3378 26.8671 21.9437 25.7872 23.865 23.8656C25.7863 21.9439 26.8657 19.3378 26.8657 16.6204C26.8657 15.9951 26.7861 15.392 26.6751 14.8H29.6V28.1496C29.6 28.3177 29.5668 28.4841 29.5023 28.6394C29.4378 28.7946 29.3433 28.9356 29.2242 29.0542C29.105 29.1728 28.9637 29.2667 28.8081 29.3305C28.6526 29.3944 28.486 29.4268 28.3179 29.4261H4.98205C4.81395 29.4268 4.64736 29.3944 4.49185 29.3305C4.33634 29.2667 4.19496 29.1728 4.07584 29.0542C3.95672 28.9356 3.86219 28.7946 3.7977 28.6394C3.7332 28.4841 3.7 28.3177 3.7 28.1496V14.8H6.56565C6.4528 15.392 6.37325 15.9951 6.37325 16.6204C6.37374 19.338 7.45351 21.9441 9.37511 23.8657C11.2967 25.7873 13.9028 26.8671 16.6204 26.8675ZM10.2175 16.6204C10.2175 15.7796 10.3832 14.947 10.7049 14.1701C11.0267 13.3933 11.4983 12.6875 12.0929 12.0929C12.6875 11.4983 13.3933 11.0267 14.1701 10.7049C14.947 10.3832 15.7796 10.2175 16.6204 10.2175C17.4612 10.2175 18.2938 10.3832 19.0707 10.7049C19.8475 11.0267 20.5533 11.4983 21.1479 12.0929C21.7425 12.6875 22.2141 13.3933 22.5359 14.1701C22.8576 14.947 23.0232 15.7796 23.0232 16.6204C23.0232 18.3185 22.3487 19.9471 21.1479 21.1479C19.9471 22.3487 18.3185 23.0232 16.6204 23.0232C14.9223 23.0232 13.2937 22.3487 12.0929 21.1479C10.8921 19.9471 10.2175 18.3185 10.2175 16.6204ZM28.3179 9.25H25.3302C24.991 9.24902 24.6659 9.11383 24.426 8.87396C24.1862 8.63409 24.051 8.30903 24.05 7.9698V4.97835C24.05 4.27165 24.6235 3.7 25.3283 3.7H28.3161C29.0265 3.7 29.6 4.27165 29.6 4.97835V7.96795C29.6 8.6728 29.0265 9.25 28.3179 9.25Z" fill="url(#paint0_linear_9_323)"/>
<defs>
<linearGradient id="paint0_linear_9_323" x1="16.65" y1="0" x2="16.65" y2="33.3" gradientUnits="userSpaceOnUse">
<stop offset="0.130208" stop-color="#FFE609"/>
<stop offset="0.546875" stop-color="#FBEB7F"/>
<stop offset="0.911458" stop-color="#EBBA0D"/>
<stop offset="1" stop-color="#6D5A13"/>
</linearGradient>
</defs>
</svg>
